<?xml version="1.0" encoding="UTF-8" standalone="no"?>
<!-- Created with Inkscape (http://www.inkscape.org/) -->

<svg
   xmlns:dc="http://purl.org/dc/elements/1.1/"
   xmlns:cc="http://creativecommons.org/ns#"
   xmlns:rdf="http://www.w3.org/1999/02/22-rdf-syntax-ns#"
   xmlns:svg="http://www.w3.org/2000/svg"
   xmlns="http://www.w3.org/2000/svg"
   xmlns:sodipodi="http://sodipodi.sourceforge.net/DTD/sodipodi-0.dtd"
   xmlns:inkscape="http://www.inkscape.org/namespaces/inkscape"
   width="250"
   height="250"
   viewBox="0 0 66.145831 66.145835"
   version="1.1"
   id="svg1404"
   inkscape:version="0.92.4 (5da689c313, 2019-01-14)"
   sodipodi:docname="refresh.svg">
  <defs
     id="defs1398">
    <inkscape:path-effect
       is_visible="true"
       id="path-effect845"
       effect="spiro" />
    <inkscape:path-effect
       is_visible="true"
       id="path-effect839"
       effect="spiro" />
    <inkscape:path-effect
       effect="spiro"
       id="path-effect835"
       is_visible="true" />
  </defs>
  <sodipodi:namedview
     id="base"
     pagecolor="#ffffff"
     bordercolor="#666666"
     borderopacity="1.0"
     inkscape:pageopacity="0.0"
     inkscape:pageshadow="2"
     inkscape:zoom="0.35"
     inkscape:cx="756.21656"
     inkscape:cy="430.49674"
     inkscape:document-units="px"
     inkscape:current-layer="layer1"
     showgrid="false"
     units="px"
     inkscape:window-width="1920"
     inkscape:window-height="1027"
     inkscape:window-x="-8"
     inkscape:window-y="-8"
     inkscape:window-maximized="1"
     inkscape:snap-global="false" />
  <metadata
     id="metadata1401">
    <rdf:RDF>
      <cc:Work
         rdf:about="">
        <dc:format>image/svg+xml</dc:format>
        <dc:type
           rdf:resource="http://purl.org/dc/dcmitype/StillImage" />
        <dc:title />
      </cc:Work>
    </rdf:RDF>
  </metadata>
  <g
     inkscape:label="Layer 1"
     inkscape:groupmode="layer"
     id="layer1"
     transform="translate(0,-230.85415)">
    <g
       id="g856">
      <path
         transform="matrix(0.26458333,0,0,0.26458333,0,230.85415)"
         sodipodi:nodetypes="ccccsccsssscc"
         inkscape:connector-curvature="0"
         id="path815"
         d="M 212.9222,155.1831 C 200.39139,191.69271 165.76013,217.93339 125,217.93359 73.674297,217.93334 32.066656,176.3257 32.066406,125 32.066653,73.674296 73.674296,32.066653 125,32.066406 c 28.29813,1.38e-4 53.64216,12.648111 70.6875,32.599334 6.88985,8.064426 12.42383,17.322081 16.24899,27.420005 L 241.12744,78.656301 C 237.33632,69.165019 232.41531,60.247301 226.53066,52.0694 203.83856,20.534191 166.81729,3.3453826e-6 125,0 55.964409,-5.5228468e-6 5.5228467e-6,55.964409 0,125 c 5.5228467e-6,69.03559 55.964409,125.00001 125,125 56.74933,0 104.66602,-37.81702 119.92405,-89.62502 3.13578,-22.03629 -27.55033,-22.82789 -32.00185,-5.19188 z"
         style="opacity:1;fill:#008080;fill-opacity:1;fill-rule:nonzero;stroke:none;stroke-width:13.71749306;stroke-miterlimit:4;stroke-dasharray:none;stroke-opacity:0;paint-order:fill markers stroke" />
      <path
         style="opacity:1;fill:#008080;fill-opacity:1;fill-rule:nonzero;stroke:none;stroke-width:0.66432261;stroke-miterlimit:4;stroke-dasharray:none;stroke-opacity:1;paint-order:fill markers stroke"
         d="M 68.044191,259.42702 65.865375,230.06967 38.687026,257.24803 Z"
         id="path852"
         inkscape:connector-curvature="0"
         sodipodi:nodetypes="cccc" />
    </g>
  </g>
</svg>
