<?xml version="1.0" encoding="UTF-8" standalone="no"?>
<!-- Created with Inkscape (http://www.inkscape.org/) -->

<svg
   xmlns:dc="http://purl.org/dc/elements/1.1/"
   xmlns:cc="http://creativecommons.org/ns#"
   xmlns:rdf="http://www.w3.org/1999/02/22-rdf-syntax-ns#"
   xmlns:svg="http://www.w3.org/2000/svg"
   xmlns="http://www.w3.org/2000/svg"
   xmlns:sodipodi="http://sodipodi.sourceforge.net/DTD/sodipodi-0.dtd"
   xmlns:inkscape="http://www.inkscape.org/namespaces/inkscape"
   width="830"
   height="250"
   viewBox="0 0 219.60416 66.145835"
   version="1.1"
   id="svg1404"
   inkscape:version="0.92.4 (5da689c313, 2019-01-14)"
   sodipodi:docname="logoSVG.svg">
  <defs
     id="defs1398" />
  <sodipodi:namedview
     id="base"
     pagecolor="#ffffff"
     bordercolor="#666666"
     borderopacity="1.0"
     inkscape:pageopacity="0.0"
     inkscape:pageshadow="2"
     inkscape:zoom="1.4"
     inkscape:cx="442.18601"
     inkscape:cy="21.684304"
     inkscape:document-units="px"
     inkscape:current-layer="layer1"
     showgrid="false"
     units="px"
     inkscape:window-width="1920"
     inkscape:window-height="1027"
     inkscape:window-x="-8"
     inkscape:window-y="-8"
     inkscape:window-maximized="1" />
  <metadata
     id="metadata1401">
    <rdf:RDF>
      <cc:Work
         rdf:about="">
        <dc:format>image/svg+xml</dc:format>
        <dc:type
           rdf:resource="http://purl.org/dc/dcmitype/StillImage" />
        <dc:title></dc:title>
      </cc:Work>
    </rdf:RDF>
  </metadata>
  <g
     inkscape:label="Layer 1"
     inkscape:groupmode="layer"
     id="layer1"
     transform="translate(0,-230.85415)">
    <g
       id="g1396"
       transform="matrix(1.6262439,0,0,1.6209288,-1138.8415,-18.288602)">
      <g
         transform="translate(-0.53453905,5.61266)"
         id="g1263">
        <path
           style="opacity:1;fill:#800000;fill-opacity:1;fill-rule:nonzero;stroke:none;stroke-width:0.26458332;stroke-opacity:1;paint-order:fill markers stroke"
           id="path1151"
           d="m 765.77185,155.3641 c -0.11766,-0.24593 -0.0801,-0.51786 -0.0367,-0.77676 0.0719,-0.40323 0.2649,-0.75962 0.48075,-1.1017 0.62159,-0.82705 1.36012,-1.59634 2.24504,-2.13862 0.48078,-0.27667 1.00878,-0.40304 1.55552,-0.45563 0.76565,-0.037 1.52315,0.0894 2.27229,0.23105 0.97756,0.20729 1.94561,0.45639 2.91775,0.68714 1.22907,0.29524 2.46573,0.55689 3.70615,0.79961 1.38353,0.26703 2.78384,0.42863 4.18713,0.54516 1.49191,0.1213 2.98779,0.10763 4.48165,0.0438 1.41589,-0.0573 2.8162,-0.27312 4.20677,-0.53359 1.12879,-0.22127 2.24462,-0.5018 3.3469,-0.82963 0.59309,-0.18272 1.19176,-0.36205 1.75723,-0.62074 0.60462,-0.29943 1.06804,-1.04934 -1.02913,1.34297 -0.0294,0.0335 -0.082,0.0352 -0.12207,0.0548 -0.15394,0.0751 -0.22024,0.11665 -0.37561,0.20516 -0.0806,0.0515 -0.16314,0.10014 -0.24177,0.1546 -0.30626,0.21209 -0.5928,0.45704 -0.86665,0.70887 -0.11239,0.10336 -0.43878,0.42478 -0.33141,0.31623 0.27366,-0.27664 0.55353,-0.54704 0.83029,-0.82055 -0.69927,0.73283 -1.34009,1.52531 -1.8855,2.37987 -0.12298,0.19269 -0.23636,0.39132 -0.35455,0.58698 -0.77118,1.31397 -1.25489,2.75705 -1.65531,4.21869 -0.41727,1.60946 -0.60523,3.26417 -0.76824,4.91496 -0.13663,1.7413 -0.32631,3.47617 -0.60966,5.19971 -0.26209,1.43285 -0.6487,2.84976 -1.24422,4.18234 -0.11819,0.26448 -0.25295,0.52125 -0.37942,0.78187 -0.40232,0.77241 -0.87616,1.50648 -1.4361,2.17456 -0.62889,0.75036 -1.83827,1.89178 -2.36956,2.37684 -0.22148,0.20223 -0.47524,0.36601 -0.71284,0.54902 -1.28942,0.91045 -2.74251,1.55309 -4.25865,1.9805 -0.31655,0.0892 -0.6381,0.15971 -0.95716,0.23956 -1.58231,0.3465 -3.20053,0.50893 -4.81936,0.52397 -0.30551,0.003 -0.61105,-0.006 -0.91659,-0.009 -1.56348,-0.0287 -3.116,-0.22997 -4.65402,-0.50009 -0.78531,-0.14361 -1.56263,-0.32802 -2.32635,-0.56013 0,0 1.15821,-1.27446 1.15821,-1.27446 v 0 c 0.74221,0.24698 1.50045,0.44206 2.26822,0.5925 1.51749,0.28549 3.05155,0.49294 4.59772,0.52246 0.30287,0.003 0.60576,0.0117 0.90866,0.009 1.6085,-0.0156 3.21622,-0.18234 4.78581,-0.53897 0.3171,-0.0825 0.63685,-0.15559 0.95136,-0.24756 1.50847,-0.44108 2.94965,-1.10086 4.22314,-2.02718 0.23474,-0.18629 0.40744,-0.51724 0.70419,-0.55886 0.23392,-0.0328 -0.64801,0.68657 -0.47421,0.5266 0.21466,-0.19757 0.40674,-0.41884 0.59722,-0.63982 0.56663,-0.65741 1.04825,-1.38186 1.45571,-2.14739 0.12867,-0.25797 0.26569,-0.51193 0.38595,-0.77392 0.60629,-1.32078 1.00039,-2.72943 1.26862,-4.15457 0.28861,-1.71951 0.48276,-3.45089 0.61465,-5.18954 0.15624,-1.65355 0.33444,-3.31143 0.73912,-4.92614 0.38944,-1.46555 0.8586,-2.91477 1.6106,-4.24045 0.11504,-0.19681 0.22516,-0.39658 0.34515,-0.59042 0.52956,-0.85559 1.15731,-1.64954 1.8415,-2.386 0.95268,-0.95751 1.87113,-2.02358 3.03905,-2.73652 0.1715,-0.0946 0.23278,-0.13329 0.40365,-0.21072 0.0456,-0.0207 0.16677,-0.0984 0.13893,-0.0568 -0.95594,1.4278 -0.50808,1.17009 -1.16779,1.42881 -0.56809,0.21542 -1.14916,0.39474 -1.73384,0.5593 -1.10022,0.30676 -2.2107,0.57606 -3.33356,0.78711 -1.39399,0.25181 -2.79763,0.45635 -4.2154,0.50757 -1.49979,0.0579 -3.00138,0.0656 -4.49889,-0.0549 -1.41047,-0.1177 -2.81787,-0.27995 -4.2086,-0.54802 -1.2465,-0.24106 -2.48954,-0.5001 -3.72663,-0.78594 -0.97552,-0.22404 -1.94746,-0.46532 -2.92902,-0.66201 -0.7425,-0.13028 -1.49542,-0.24349 -2.25128,-0.17682 -0.53187,0.0753 -1.04487,0.22066 -1.50125,0.51439 -0.17973,0.12181 -0.21966,0.14268 -0.387,0.28064 -0.0596,0.0492 -0.22805,0.20862 -0.17436,0.15298 1.93045,-2.00076 1.15831,-1.2062 0.76721,-0.74204 -0.22178,0.32077 -0.42902,0.65697 -0.51549,1.04227 -0.0494,0.21433 -0.10422,0.44987 -0.0275,0.66445 0,0 -1.29646,1.22918 -1.29646,1.22918 z"
           inkscape:connector-curvature="0" />
        <g
           id="g1360">
          <g
             transform="translate(12.97176,1.0156438)"
             id="g1141">
            <path
               style="opacity:1;fill:#800000;fill-opacity:1;fill-rule:nonzero;stroke:none;stroke-width:0.26458332;stroke-opacity:1;paint-order:fill markers stroke"
               id="path1109"
               d="m 794.70895,171.90321 c 0.13102,0.39588 0.27881,0.78614 0.41576,1.18009 0.2925,0.82818 0.52618,1.67473 0.74943,2.52362 0.24705,0.94282 0.42847,1.90004 0.57994,2.86224 0.11944,0.74646 0.19201,1.4988 0.26467,2.25085 0.0249,0.28435 0.0138,0.15055 0.0335,0.40136 0,0 -1.3311,1.14873 -1.3311,1.14873 v 0 c -0.006,-0.25772 -0.003,-0.12054 -0.0135,-0.41152 -0.0522,-0.75806 -0.1115,-1.51604 -0.22717,-2.26762 -0.14412,-0.95879 -0.32007,-1.91241 -0.5656,-2.85108 -0.2223,-0.83928 -0.45641,-1.67627 -0.76547,-2.48859 -0.14456,-0.38534 -0.29265,-0.76954 -0.45979,-1.14578 0,0 1.31929,-1.2023 1.31929,-1.2023 z"
               inkscape:connector-curvature="0" />
            <path
               style="opacity:1;fill:#800000;fill-opacity:1;fill-rule:nonzero;stroke:none;stroke-width:0.26458332;stroke-opacity:1;paint-order:fill markers stroke"
               id="path1111"
               d="m 799.99876,171.80065 c 0.10597,0.33193 0.1053,0.68234 0.10194,1.02689 -0.0206,0.71462 -0.16184,1.41424 -0.36613,2.09687 -0.23876,0.74312 -0.5784,1.33468 -1.08931,1.91973 -0.8599,0.94356 -1.52096,1.66376 -2.64748,2.12309 -0.24937,0.0659 -0.5788,0.23896 -0.83428,0.1145 -0.50443,-0.58446 0.99388,-1.22935 1.24762,-1.45194 0.0474,-0.0416 0.41399,-0.0463 0.47413,-0.049 0.57102,-0.004 1.10638,0.19951 1.62356,0.4201 0.65254,0.28567 1.26662,0.64892 1.85785,1.04417 0.55928,0.36746 1.05662,0.81334 1.51607,1.29736 0.24474,0.27476 0.127,0.13808 0.35372,0.40959 0,0 -1.24381,1.21939 -1.24381,1.21939 v 0 c -0.21693,-0.27011 -0.10398,-0.13423 -0.33938,-0.40717 -0.44551,-0.47937 -0.92969,-0.9193 -1.47913,-1.27865 -0.58369,-0.38834 -1.19049,-0.7442 -1.83824,-1.01613 -0.50403,-0.20372 -1.02706,-0.38756 -1.57983,-0.34347 -0.13549,0.0172 -0.20526,0.019 -0.33237,0.0595 -0.037,0.0118 -0.13404,0.0735 -0.10734,0.0453 1.47942,-1.565 1.66116,-0.90925 1.05384,-1.26415 0.24542,-0.007 0.48127,-0.0818 0.70781,-0.17219 0.23185,-0.10268 0.45328,-0.21254 0.66601,-0.3519 0.50334,-0.32974 1.39573,-1.22931 -0.48961,0.62182 0.20418,-0.21391 0.27868,-0.27802 0.45481,-0.52005 0.29845,-0.4101 0.51748,-0.87067 0.68877,-1.34637 0.21439,-0.66162 0.35737,-1.34246 0.37706,-2.04017 0.003,-0.31793 0.008,-0.64328 -0.0919,-0.94921 0,0 1.31559,-1.20788 1.31559,-1.20788 z"
               inkscape:connector-curvature="0" />
          </g>
          <g
             transform="translate(13.376623,1.0156438)"
             id="g1137">
            <path
               inkscape:connector-curvature="0"
               d="m 804.63082,171.90321 c 0.13102,0.39588 0.27881,0.78614 0.41576,1.18009 0.2925,0.82818 0.52618,1.67473 0.74943,2.52362 0.24705,0.94282 0.42847,1.90004 0.57994,2.86224 0.11944,0.74646 0.19201,1.4988 0.26467,2.25085 0.0249,0.28435 0.0138,0.15055 0.0335,0.40136 0,0 -1.3311,1.14873 -1.3311,1.14873 v 0 c -0.006,-0.25772 -0.003,-0.12054 -0.0135,-0.41152 -0.0522,-0.75806 -0.1115,-1.51604 -0.22717,-2.26762 -0.14412,-0.95879 -0.32007,-1.91241 -0.5656,-2.85108 -0.2223,-0.83928 -0.45641,-1.67627 -0.76547,-2.48859 -0.14456,-0.38534 -0.29265,-0.76954 -0.45979,-1.14578 0,0 1.31929,-1.2023 1.31929,-1.2023 z"
               id="path1113"
               style="opacity:1;fill:#800000;fill-opacity:1;fill-rule:nonzero;stroke:none;stroke-width:0.26458332;stroke-opacity:1;paint-order:fill markers stroke" />
            <path
               inkscape:connector-curvature="0"
               d="m 809.92063,171.80065 c 0.10597,0.33193 0.1053,0.68234 0.10194,1.02689 -0.0206,0.71462 -0.16184,1.41424 -0.36613,2.09687 -0.23876,0.74312 -0.5784,1.33468 -1.08931,1.91973 -0.8599,0.94356 -1.52096,1.66376 -2.64748,2.12309 -0.24937,0.0659 -0.5788,0.23896 -0.83428,0.1145 -0.50443,-0.58446 0.99388,-1.22935 1.24762,-1.45194 0.0474,-0.0416 0.41399,-0.0463 0.47413,-0.049 0.57102,-0.004 1.10638,0.19951 1.62356,0.4201 0.65254,0.28567 1.26662,0.64892 1.85785,1.04417 0.55928,0.36746 1.05662,0.81334 1.51607,1.29736 0.24474,0.27476 0.127,0.13808 0.35372,0.40959 0,0 -1.24381,1.21939 -1.24381,1.21939 v 0 c -0.21693,-0.27011 -0.10398,-0.13423 -0.33938,-0.40717 -0.44551,-0.47937 -0.92969,-0.9193 -1.47913,-1.27865 -0.58369,-0.38834 -1.19049,-0.7442 -1.83824,-1.01613 -0.50403,-0.20372 -1.02706,-0.38756 -1.57983,-0.34347 -0.13549,0.0172 -0.20526,0.019 -0.33237,0.0595 -0.037,0.0118 -0.13404,0.0735 -0.10734,0.0453 1.47942,-1.565 1.66116,-0.90925 1.05384,-1.26415 0.24542,-0.007 0.48127,-0.0818 0.70781,-0.17219 0.23185,-0.10268 0.45328,-0.21254 0.66601,-0.3519 0.50334,-0.32974 1.39573,-1.22931 -0.48961,0.62182 0.20418,-0.21391 0.27868,-0.27802 0.45481,-0.52005 0.29845,-0.4101 0.51748,-0.87067 0.68877,-1.34637 0.21439,-0.66162 0.35737,-1.34246 0.37706,-2.04017 0.003,-0.31793 0.008,-0.64328 -0.0919,-0.94921 0,0 1.31559,-1.20788 1.31559,-1.20788 z"
               id="path1115"
               style="opacity:1;fill:#800000;fill-opacity:1;fill-rule:nonzero;stroke:none;stroke-width:0.26458332;stroke-opacity:1;paint-order:fill markers stroke" />
          </g>
          <g
             transform="translate(12.428005,0.5813938)"
             id="g1133">
            <path
               inkscape:connector-curvature="0"
               d="m 815.6134,172.17102 c -0.0435,0.30664 -0.0489,0.61764 -0.06,0.92675 -0.0196,0.66667 -0.007,1.33384 -0.003,2.00067 0.007,0.79942 0.0117,1.59886 0.0171,2.39829 -0.007,0.68405 0.0521,1.36372 0.17208,2.03649 0.0854,0.46318 0.24959,0.9003 0.51036,1.29192 0.27529,0.3535 0.50721,0.46328 0.94551,0.50861 0.50678,0.006 0.96847,-0.20797 1.40397,-0.44484 0.24857,-0.14964 0.48117,-0.32304 0.69569,-0.51833 0.0738,-0.0671 0.28619,-0.27806 0.21529,-0.20789 -0.91978,0.91052 -1.05603,1.08331 -0.61991,0.5731 0.39022,-0.48217 0.67123,-1.03393 0.90641,-1.60438 0.22942,-0.58184 0.34922,-1.19636 0.44966,-1.81111 0.092,-0.57846 0.14004,-1.16195 0.17113,-1.74641 0.0101,-0.28629 0.0185,-0.57454 -0.0216,-0.85904 l 1.05146,-1.02309 v 0 c 0.0336,0.30059 0.0209,0.60376 0.009,0.90527 -0.0362,0.59087 0.003,1.20671 -0.0851,1.79245 -0.0957,0.62112 -0.20721,1.24299 -0.42648,1.83449 -0.22642,0.58039 -0.50035,1.14163 -0.87845,1.64036 -0.54272,0.67331 -0.20101,0.26578 -1.42113,1.48048 -0.27968,0.27843 -0.60269,0.51136 -0.94527,0.70563 -0.46379,0.23364 -0.95237,0.43706 -1.48318,0.39908 -0.48079,-0.0742 -0.73389,-0.20822 -1.03776,-0.59538 -0.27331,-0.40922 -0.44798,-0.86528 -0.53703,-1.35004 -0.12086,-0.68341 -0.18167,-1.3738 -0.17301,-2.06855 -0.003,-0.79852 -0.009,-1.59703 -0.0191,-2.39549 -0.009,-0.66186 -0.0261,-1.32378 -0.0231,-1.9857 0.003,-0.30367 0.005,-0.60739 0.0173,-0.91087 l 1.1677,-0.97247 z"
               id="path1127"
               style="opacity:1;fill:#800000;fill-opacity:1;fill-rule:nonzero;stroke:none;stroke-width:0.22505659;stroke-opacity:1;paint-order:fill markers stroke"
               sodipodi:nodetypes="cccccccccccccccccccccccccccccccc" />
            <path
               inkscape:connector-curvature="0"
               d="m 821.63998,171.94378 c -0.0594,0.28647 -0.0843,0.57949 -0.11336,0.87031 -0.0572,0.51162 -0.0561,1.02536 -0.031,1.5387 0.0388,0.65267 0.13353,1.29996 0.22078,1.94738 0.10044,0.70621 0.22585,1.40883 0.37465,2.10641 0.12689,0.60961 0.30904,1.20425 0.53615,1.78341 0.16614,0.41744 0.38349,0.81049 0.61881,1.19216 0.12683,0.19634 0.0642,0.0996 0.18768,0.29037 0,0 -1.07793,1.03183 -1.07793,1.03183 v 0 c -0.12137,-0.19368 -0.0593,-0.0951 -0.18634,-0.29558 -0.23703,-0.39247 -0.45347,-0.7972 -0.62317,-1.22394 -0.22701,-0.58895 -0.41315,-1.19178 -0.5409,-1.81065 -0.15043,-0.70048 -0.2751,-1.40629 -0.38178,-2.11474 -0.0893,-0.64788 -0.19024,-1.29487 -0.23825,-1.9476 -0.0323,-0.51432 -0.0453,-1.02953 0.004,-1.5435 0.0219,-0.28765 0.0493,-0.57483 0.0775,-0.8619 0,0 1.17326,-0.96266 1.17326,-0.96266 z"
               id="path1129"
               style="opacity:1;fill:#800000;fill-opacity:1;fill-rule:nonzero;stroke:none;stroke-width:0.22505659;stroke-opacity:1;paint-order:fill markers stroke" />
          </g>
          <g
             transform="translate(42.427827,12.057317)"
             id="g1217">
            <path
               inkscape:connector-curvature="0"
               id="path1193"
               transform="matrix(0.26458333,0,0,0.26458333,-42.427827,152.65102)"
               d="m 3004.6426,31.642578 a 19.285715,19.285715 0 0 0 -19.2852,19.285156 19.285715,19.285715 0 0 0 19.2852,19.285157 19.285715,19.285715 0 0 0 19.2851,-19.285157 19.285715,19.285715 0 0 0 -19.2851,-19.285156 z m 0,6.154297 a 13.131983,13.131983 0 0 1 13.1328,13.130859 13.131983,13.131983 0 0 1 -13.1328,13.132813 13.131983,13.131983 0 0 1 -13.1309,-13.132813 13.131983,13.131983 0 0 1 13.1309,-13.130859 z"
               style="opacity:1;fill:#800000;fill-opacity:1;fill-rule:nonzero;stroke:none;stroke-width:0.99999994;stroke-opacity:1;paint-order:fill markers stroke" />
            <path
               style="opacity:1;fill:#800000;fill-opacity:1;fill-rule:nonzero;stroke:none;stroke-width:0.26458332;stroke-opacity:1;paint-order:fill markers stroke"
               id="path1213"
               d="m 758.42768,161.25431 c -0.0648,0.41401 -0.0324,0.83334 0.007,1.2478 0.0974,0.85428 0.32864,1.68479 0.57097,2.50721 0.27371,0.956 0.70977,1.84429 1.22918,2.68773 0.4581,0.71781 1.05354,1.32202 1.70481,1.86357 0.34743,0.26675 0.17585,0.14071 0.51393,0.3793 0,0 -1.20544,1.24386 -1.20544,1.24386 v 0 c -0.33695,-0.25209 -0.16558,-0.11975 -0.5134,-0.39797 -0.65561,-0.56369 -1.25815,-1.18663 -1.72527,-1.9192 -0.52707,-0.8546 -0.97308,-1.75389 -1.25907,-2.72016 -0.2522,-0.82287 -0.49228,-1.6532 -0.6177,-2.50648 -0.0544,-0.41165 -0.10001,-0.82525 -0.0759,-1.2412 0,0 1.37041,-1.14446 1.37041,-1.14446 z"
               inkscape:connector-curvature="0" />
          </g>
        </g>
      </g>
      <g
         transform="translate(9.2207987,4.2405772)"
         id="g1369">
        <path
           style="opacity:1;fill:#800000;fill-opacity:1;fill-rule:nonzero;stroke:none;stroke-width:0.26458332;stroke-opacity:1;paint-order:fill markers stroke"
           id="path1085"
           d="m 692.36576,179.91121 c 0.17021,0.29617 0.41505,0.54057 0.65304,0.78203 0.40431,0.38432 0.86694,0.71111 1.38372,0.92659 0.12113,0.0505 0.24686,0.0891 0.37029,0.13364 0.78435,0.22349 1.60263,0.18126 2.39029,-0.006 0.19802,-0.047 0.39191,-0.10978 0.58786,-0.16468 1.17154,-0.38567 2.2317,-1.03316 3.17164,-1.82607 0.21709,-0.18313 0.42182,-0.38042 0.63272,-0.57064 -0.16867,0.16542 -0.62958,0.69764 -0.50604,0.49626 0.16023,-0.26115 0.41796,-0.44827 0.61865,-0.67979 0.20547,-0.23707 0.40499,-0.47939 0.59946,-0.72557 0.62463,-0.79074 1.15319,-1.6008 1.68643,-2.45371 1.10194,-1.80699 1.91783,-3.75914 2.6484,-5.73899 0.70885,-1.99652 1.22081,-4.05431 1.67238,-6.12184 0.40494,-1.84579 0.6745,-3.71587 0.87175,-5.594 0.14568,-1.44479 0.18857,-2.89627 0.14189,-4.34693 -0.0369,-0.8572 -0.14538,-1.70896 -0.17769,-2.56636 -0.006,-0.7631 0.26887,-2.19231 1.44211,-1.96853 0.28401,0.15266 0.39627,0.4754 0.50877,0.75847 0.25027,0.67219 0.34763,1.38458 0.43582,2.09228 0.1311,1.11686 0.14317,2.24268 0.13539,3.3657 -0.0225,1.4133 -0.0708,2.82604 -0.10438,4.23912 -0.0329,1.57163 -0.0762,3.14302 -0.12232,4.71431 -0.044,1.6081 -0.0977,3.21592 -0.15406,4.82363 -0.0611,1.60735 -0.0907,3.2156 -0.12973,4.82357 -0.0342,1.55235 -0.10025,3.10371 -0.15811,4.65529 -0.0611,1.41182 -0.11436,2.82393 -0.15725,4.23643 -0.0303,1.12887 -0.0612,2.2579 -0.0665,3.38721 -0.0196,0.70234 0.0385,1.40379 0.0386,2.10563 -0.0407,0.83328 -0.40727,0.82235 -1.40232,1.58046 -0.0251,0.0192 -0.13573,-0.12237 -0.21487,-0.21742 -0.35269,-0.50816 -0.57795,-1.09187 -0.80372,-1.66395 -0.38825,-1.0509 -0.76449,-2.106 -1.16864,-3.15096 -0.49689,-1.30321 -1.11265,-2.55497 -1.76543,-3.78582 -0.6169,-1.11881 -1.31408,-2.19751 -2.12823,-3.1839 -0.15983,-0.19365 -0.3288,-0.37958 -0.49318,-0.56936 -0.64799,-0.70269 -1.36163,-1.34657 -2.1371,-1.90627 -0.45693,-0.3298 -0.62473,-0.41971 -1.10072,-0.70987 -0.86174,-0.49914 -1.76762,-0.91376 -2.71309,-1.22502 -0.22989,-0.0556 -0.47365,-0.15225 -0.71638,-0.1204 -0.0351,0.005 -0.12539,0.0606 -0.10023,0.0356 1.19325,-1.18504 1.80729,-1.08466 1.22121,-1.1747 0.64781,0.43478 1.50845,0.53167 2.26026,0.65284 2.05499,0.26109 4.12544,0.0731 6.1735,-0.15065 2.95545,-0.35034 5.86599,-0.98181 8.76173,-1.65463 2.55458,-0.61796 5.10063,-1.27183 7.62799,-1.99333 0,0 -0.98804,1.2225 -0.98804,1.2225 v 0 c -2.5138,0.68059 -5.04145,1.30897 -7.57393,1.91608 -2.91246,0.6696 -5.83756,1.30406 -8.80502,1.68004 -2.08544,0.24396 -4.19277,0.455 -6.29036,0.22291 -0.69302,-0.0975 -1.65994,-0.20397 -2.28431,-0.55215 -0.0582,-0.0325 -0.10948,-0.076 -0.16422,-0.11397 -0.48835,-0.62626 -0.219,-0.17538 1.19091,-1.42014 0.0304,-0.0268 0.0812,-0.003 0.12163,7.9e-4 0.24953,0.0216 0.48861,0.10225 0.72464,0.18068 0.93806,0.34705 1.84095,0.78004 2.70092,1.29184 0.4726,0.29597 0.65101,0.39589 1.10543,0.72941 0.77965,0.57217 1.49868,1.22595 2.15159,1.93876 0.16571,0.19205 0.33592,0.38032 0.49718,0.57615 0.81875,0.9944 1.52231,2.07936 2.1509,3.20209 0.66112,1.23032 1.29006,2.47943 1.79769,3.78232 0.40952,1.03653 0.79063,2.08382 1.19811,3.12113 0.22614,0.54549 0.45292,1.10369 0.80637,1.5814 0.48628,0.52373 0.53113,-0.35579 -1.11945,1.31026 -0.018,0.0182 0.0522,-0.0149 0.0689,-0.0344 0.0576,-0.0673 0.0637,-0.19131 0.0766,-0.26717 0.0487,-0.71134 -0.0269,-1.42668 0.007,-2.13905 0.014,-1.13745 0.053,-2.27443 0.0886,-3.41136 0.0502,-1.41772 0.11062,-2.83501 0.17452,-4.25217 0.0599,-1.55237 0.12679,-3.10455 0.16407,-4.65769 0.043,-1.60846 0.0706,-3.21735 0.12941,-4.82537 0.0571,-1.60801 0.1126,-3.21611 0.15679,-4.82453 0.0438,-1.56801 0.0835,-3.13616 0.11239,-4.70453 0.0293,-1.40693 0.0728,-2.81365 0.0874,-4.22082 0.003,-1.10975 -0.0101,-2.22284 -0.14748,-3.32567 -0.0917,-0.68583 -0.19118,-1.37676 -0.44421,-2.02535 -0.0305,-0.0741 -0.23116,-0.60588 -0.35237,-0.56752 -0.20973,0.57125 -0.0116,0.0139 1.15525,-1.17204 0.0236,-0.024 -0.0429,0.0526 -0.0575,0.0829 -0.082,0.16961 -0.0818,0.36717 -0.0914,0.55001 -0.006,0.87185 0.0927,1.73845 0.12462,2.60909 0.0345,1.46854 -0.0156,2.93721 -0.16923,4.39888 -0.20402,1.8888 -0.47601,3.77008 -0.8841,5.62679 -0.45307,2.07445 -0.96705,4.1387 -1.66741,6.14543 -0.72244,1.98406 -1.52889,3.941 -2.61866,5.75653 -0.46283,0.75349 -0.57774,0.9684 -1.08638,1.68682 -1.02343,1.44551 -2.23131,2.73517 -3.52972,3.93912 -0.21522,0.18987 -0.42424,0.38702 -0.64564,0.56963 -0.96554,0.79634 -2.05269,1.44001 -3.24877,1.82018 -0.20166,0.0545 -0.40126,0.11721 -0.60499,0.16339 -0.82042,0.18598 -1.67008,0.2145 -2.48177,-0.0271 -0.12819,-0.0474 -0.25863,-0.0891 -0.38457,-0.14219 -0.5344,-0.2251 -1.01571,-0.55914 -1.44285,-0.94842 -0.25585,-0.24628 -0.51088,-0.49535 -0.71951,-0.78433 0,0 1.29646,-1.22919 1.29646,-1.22919 z"
           inkscape:connector-curvature="0" />
        <g
           id="g1346">
          <path
             inkscape:connector-curvature="0"
             d="m 719.87531,174.40069 c -0.0522,0.2792 -0.12272,0.55496 -0.18357,0.83254 -0.15018,0.63089 -0.28935,1.26415 -0.42061,1.89923 -0.18153,0.82458 -0.31157,1.65749 -0.36391,2.50011 -0.0138,0.52925 0.003,1.06445 0.12954,1.58125 0.0779,0.31946 0.11856,0.38907 0.24062,0.69127 0.31046,0.64963 0.73091,1.0239 1.34974,1.36607 0.40505,0.19377 0.83974,0.31066 1.26995,0.4331 0,0 -1.17486,1.29681 -1.17486,1.29681 v 0 c -0.435,-0.13822 -0.87587,-0.26711 -1.2845,-0.47438 -0.64267,-0.37161 -1.09336,-0.77515 -1.42245,-1.45564 -0.13047,-0.31289 -0.17436,-0.38702 -0.25974,-0.718 -0.13618,-0.52805 -0.16171,-1.07617 -0.15277,-1.61892 0.0423,-0.84745 0.16637,-1.68516 0.34372,-2.51502 0.12253,-0.62672 0.24937,-1.25257 0.38984,-1.87555 0.0527,-0.26719 0.10419,-0.53443 0.16618,-0.7996 0,0 1.37282,-1.14327 1.37282,-1.14327 z"
             id="path1089"
             style="opacity:1;fill:#800000;fill-opacity:1;fill-rule:nonzero;stroke:none;stroke-width:0.26458332;stroke-opacity:1;paint-order:fill markers stroke" />
          <g
             transform="translate(0,0.21785227)"
             id="g1145">
            <path
               style="opacity:1;fill:#800000;fill-opacity:1;fill-rule:nonzero;stroke:none;stroke-width:0.22505659;stroke-opacity:1;paint-order:fill markers stroke"
               id="path1121"
               d="m 736.52188,174.24989 c -0.0435,0.30664 -0.0489,0.61764 -0.06,0.92675 -0.0196,0.66667 -0.007,1.33384 -0.003,2.00067 0.007,0.79942 0.0117,1.59886 0.0171,2.39829 -0.007,0.68405 0.0521,1.36372 0.17208,2.03649 0.0854,0.46318 0.24959,0.9003 0.51036,1.29192 0.27529,0.3535 0.50721,0.46328 0.94551,0.50861 0.50678,0.006 0.96847,-0.20797 1.40397,-0.44484 0.24857,-0.14964 0.48117,-0.32304 0.69569,-0.51833 0.0738,-0.0671 0.28619,-0.27806 0.21529,-0.20789 -0.91978,0.91052 -1.05603,1.08331 -0.61991,0.5731 0.39022,-0.48217 0.67123,-1.03393 0.90641,-1.60438 0.22942,-0.58184 0.34922,-1.19636 0.44966,-1.81111 0.092,-0.57846 0.14004,-1.16195 0.17113,-1.74641 0.0101,-0.28629 0.0185,-0.57454 -0.0216,-0.85904 l 0.98469,-1.01794 v 0 c 0.0336,0.30059 0.0209,0.60376 0.009,0.90527 -0.0362,0.59087 0.0701,1.20156 -0.0184,1.7873 -0.0957,0.62112 -0.20721,1.24299 -0.42648,1.83449 -0.22642,0.58039 -0.50035,1.14163 -0.87845,1.64036 -0.54272,0.67331 -0.20101,0.26578 -1.42113,1.48048 -0.27968,0.27843 -0.60269,0.51136 -0.94527,0.70563 -0.46379,0.23364 -0.95237,0.43706 -1.48318,0.39908 -0.48079,-0.0742 -0.73389,-0.20822 -1.03776,-0.59538 -0.27331,-0.40922 -0.44798,-0.86528 -0.53703,-1.35004 -0.12086,-0.68341 -0.18167,-1.3738 -0.17301,-2.06855 -0.003,-0.79852 -0.009,-1.59703 -0.0191,-2.39549 -0.009,-0.66186 -0.0261,-1.32378 -0.0231,-1.9857 0.003,-0.30367 0.005,-0.60739 0.0173,-0.91087 l 1.1677,-0.97247 z"
               inkscape:connector-curvature="0"
               sodipodi:nodetypes="cccccccccccccccccccccccccccccccc" />
            <path
               style="opacity:1;fill:#800000;fill-opacity:1;fill-rule:nonzero;stroke:none;stroke-width:0.22505659;stroke-opacity:1;paint-order:fill markers stroke"
               id="path1125"
               d="m 742.54846,174.02265 c -0.0594,0.28647 -0.0843,0.57949 -0.11336,0.87031 -0.0572,0.51162 -0.0561,1.02536 -0.031,1.5387 0.0388,0.65267 0.13353,1.29996 0.22078,1.94738 0.10044,0.70621 0.22585,1.40883 0.37465,2.10641 0.12689,0.60961 0.30904,1.20425 0.53615,1.78341 0.16614,0.41744 0.38349,0.81049 0.61881,1.19216 0.12683,0.19634 0.0642,0.0996 0.18768,0.29037 0,0 -1.07793,1.03183 -1.07793,1.03183 v 0 c -0.12137,-0.19368 -0.0593,-0.0951 -0.18634,-0.29558 -0.23703,-0.39247 -0.45347,-0.7972 -0.62317,-1.22394 -0.22701,-0.58895 -0.41315,-1.19178 -0.5409,-1.81065 -0.15043,-0.70048 -0.2751,-1.40629 -0.38178,-2.11474 -0.0893,-0.64788 -0.19024,-1.29487 -0.23825,-1.9476 -0.0323,-0.51432 -0.0453,-1.02953 0.004,-1.5435 0.0219,-0.28765 0.0493,-0.57483 0.0775,-0.8619 0,0 1.17326,-0.96266 1.17326,-0.96266 z"
               inkscape:connector-curvature="0" />
          </g>
          <path
             inkscape:connector-curvature="0"
             d="m 730.1137,175.36779 c 0.12531,-0.0976 0.25225,-0.19305 0.37595,-0.29276 0.20904,-0.17055 0.40944,-0.35095 0.59777,-0.54408 0.20942,-0.21867 0.38894,-0.46207 0.56912,-0.70453 0.16888,-0.22164 0.30665,-0.463 0.44228,-0.70556 0.0911,-0.17125 0.1751,-0.34827 0.23386,-0.53344 0.0375,-0.11365 0.033,-0.16852 0.16246,-0.17106 0.10808,0.0102 0.10787,0.0911 0.11713,0.18097 0.0351,0.54611 0.033,1.09514 -0.003,1.64124 -0.0109,0.17065 -0.0164,0.34154 -0.0214,0.51244 -0.005,0.18768 -0.008,0.37542 -0.01,0.56315 -0.004,0.43305 -0.0106,1.08074 -1.9e-4,-0.93398 1.9e-4,-0.0346 0.003,0.0693 0.004,0.10389 0.004,0.10807 0.005,0.10799 0.0119,0.21688 0.0222,0.2488 0.04,0.49799 0.0635,0.7467 0.0243,0.28723 0.0544,0.57394 0.0802,0.86105 0.0313,0.34001 0.0697,0.67934 0.107,1.01873 0.0434,0.39422 0.0809,0.78908 0.11734,1.18399 0.0357,0.4126 0.0745,0.82486 0.10401,1.23796 0.0556,0.8219 0.0723,1.64765 0.0307,2.47068 -0.0238,0.38482 -0.11975,0.75299 -0.27842,1.10286 -0.19558,0.37688 -0.52668,0.62758 -0.87939,0.84642 -0.49991,0.29019 -1.05736,0.44147 -1.61481,0.57506 -0.72329,0.17041 -1.4633,0.23223 -2.20403,0.25498 -0.71684,0.0146 -1.42904,-0.066 -2.12934,-0.21354 -0.25173,-0.049 -0.48702,-0.1434 -0.71959,-0.24758 0,0 0.0544,-1.22246 0.0544,-1.22246 v 0 c 0.22158,0.11231 0.44643,0.21257 0.69135,0.26483 0.68869,0.15921 1.39123,0.24572 2.09942,0.2305 0.73308,-0.0236 1.46489,-0.0916 2.17871,-0.26895 0.54517,-0.13816 1.09119,-0.29345 1.57406,-0.59182 0.33298,-0.22242 0.64,-0.47558 0.80558,-0.8513 0.13914,-0.34948 0.22174,-0.7139 0.23516,-1.09119 0.0161,-0.51249 0.0106,-0.40683 0.009,0.79606 -8e-5,0.0709 0,-0.14175 -0.003,-0.21259 -0.006,-0.21014 -0.0214,-0.42 -0.0327,-0.6299 -0.0276,-0.41275 -0.0656,-0.82451 -0.1016,-1.23658 -0.0349,-0.3934 -0.0741,-0.78644 -0.11517,-1.17923 -0.0397,-0.33722 -0.0751,-0.67497 -0.11129,-1.01258 -0.0238,-0.28593 -0.0564,-0.57094 -0.0796,-0.85691 -0.0243,-0.24731 -0.0437,-0.49488 -0.0659,-0.74239 -0.0623,-0.61535 -0.027,-1.23608 -0.0243,-1.85388 0.003,-0.18824 0.006,-0.37649 0.0122,-0.56467 0.006,-0.17197 0.0135,-0.34387 0.0241,-0.51562 0.0402,-0.78791 0.0169,1.68639 0.003,0.84313 -0.003,-0.0658 -0.0328,-0.1558 0.0566,-0.15862 0.0185,-0.001 0.0507,-0.0151 0.0553,0.003 0.0111,0.0437 -0.0538,0.10262 -0.0508,0.14527 -0.0751,0.18002 -0.15576,0.35785 -0.25535,0.52594 -0.13896,0.24203 -0.28895,0.47732 -0.45829,0.69951 -0.18293,0.2462 -0.37041,0.48971 -0.58639,0.70836 -0.19492,0.1936 -0.39894,0.37767 -0.61055,0.55294 -0.12502,0.10232 -0.25311,0.20111 -0.37323,0.30925 0,0 -0.0877,-1.26041 -0.0877,-1.26041 z"
             id="path1299"
             style="opacity:1;fill:#800000;fill-opacity:1;fill-rule:nonzero;stroke:none;stroke-width:3.06500006;stroke-miterlimit:4;stroke-dasharray:none;stroke-opacity:0;paint-order:fill markers stroke" />
        </g>
        <ellipse
           style="opacity:1;fill:#800000;fill-opacity:1;fill-rule:nonzero;stroke:none;stroke-width:1.88779867;stroke-miterlimit:4;stroke-dasharray:none;stroke-opacity:0;paint-order:fill markers stroke"
           id="path2036"
           cx="709.41119"
           cy="151.00954"
           rx="0.20774846"
           ry="0.26077363" />
      </g>
      <ellipse
         style="opacity:1;fill:#800000;fill-opacity:1;fill-rule:nonzero;stroke:none;stroke-width:1.88779867;stroke-miterlimit:4;stroke-dasharray:none;stroke-opacity:0;paint-order:fill markers stroke"
         id="path2038"
         cx="706.58997"
         cy="176.94429"
         rx="0.18558787"
         ry="0.20907536" />
    </g>
  </g>
</svg>
